<svg xmlns="http://www.w3.org/2000/svg" viewBox="0 0 1080.4268 172.024" height="172.024" width="1080.427">
  <defs>
    <clipPath id="a">
      <path d="M0 129.018h810.32V0H0z"/>
    </clipPath>
  </defs>
  <g clip-path="url(#a)" transform="matrix(1.33333 0 0 -1.33333 0 172.024)">
    <path d="M168.57 48.724c0-5.718.714-10.603 2.143-14.772 1.43-4.17 3.217-7.624 5.6-10.484 2.144-2.74 4.884-4.884 7.743-6.075 2.86-1.31 5.837-2.025 8.815-2.025 3.1 0 5.84.595 8.34 1.906 2.502 1.31 4.647 2.86 6.553 4.884 1.906 2.025 3.574 4.527 4.646 7.03 1.19 2.62 2.143 5.24 2.74 8.22h14.533c-.834-4.767-2.264-9.174-4.29-13.344-1.905-4.17-4.526-7.743-7.623-10.84-3.098-3.098-6.79-5.6-10.84-7.268-4.17-1.787-8.817-2.74-13.94-2.74-5.837 0-11.078 1.073-15.844 3.098-4.765 2.025-8.815 5.003-12.032 8.935-3.216 3.93-5.956 8.576-7.743 14.294-1.786 5.718-2.74 12.032-2.74 19.3 0 5.598.835 10.84 2.622 15.963 1.787 5.122 4.17 9.768 7.624 13.7 3.455 3.93 7.267 7.266 12.032 9.65 4.765 2.382 10.126 3.692 16.202 3.692 5.122 0 9.768-.835 13.82-2.145 4.05-1.43 7.623-3.574 10.6-6.195 3.1-2.62 5.6-5.837 7.745-9.41 2.144-3.694 3.812-7.626 4.884-11.914h-14.654c-2.144 5.956-5.003 10.483-8.696 13.342-3.693 2.86-8.34 4.29-13.94 4.29-3.572 0-6.79-.835-9.648-2.503-2.86-1.787-5.48-3.93-7.624-6.79-2.145-2.86-3.813-6.195-4.885-10.007-1.548-3.693-2.144-7.744-2.144-11.794M234.566 64.092h13.938v-2.86c1.668 1.192 5.242 3.932 11.198 3.932 7.982 0 11.675-3.335 12.747-3.93l-5.956-10.96c-1.907.714-4.766 3.93-11.676 1.07-2.74-1.19-5.123-5.48-5.6-6.908-.476-1.55-.833-3.217-.833-4.885V3.218h-13.938zM665.34 65.52h14.296v-2.858c1.667 1.19 5.48 3.93 11.555 3.93 8.22 0 11.795-3.573 12.986-3.93l-6.194-11.317c-1.906.714-4.885 4.05-11.913 1.072-2.86-1.192-5.243-5.6-5.84-7.03-.475-1.548-.833-3.215-.833-5.002V3.335h-14.295zM585.165 43.482c-1.19 3.93-2.62 6.79-4.527 8.458-1.906 1.668-4.17 2.383-7.03 2.383-2.143 0-4.05-.477-5.836-1.55-1.787-1.07-3.216-2.38-4.17-4.05-1.072-1.667-2.025-3.692-2.62-5.956-.596-2.263-.953-4.646-.953-7.028 0-2.622.237-5.124.952-7.626.595-2.5 1.43-4.765 2.62-6.552 1.192-1.906 2.502-3.574 4.17-4.646 1.668-1.19 3.574-1.787 5.6-1.787 3.097 0 5.598 1.31 7.624 4.05 1.906 2.74 3.216 5.956 3.93 9.65H599.7c-.954-7.983-3.813-14.297-8.46-18.823-4.645-4.527-10.72-6.79-18.345-6.79-4.646 0-8.697.952-12.032 2.858-3.336 1.906-6.195 4.527-8.46 7.625-2.143 3.097-3.93 6.552-4.883 10.483-1.072 3.93-1.55 7.743-1.55 11.675 0 4.17.716 8.22 1.907 12.032 1.192 3.812 3.217 6.91 5.6 9.768 2.382 2.74 5.24 4.885 8.815 6.553 3.336 1.55 7.267 2.383 11.437 2.383 3.692 0 6.908-.595 10.005-1.787 2.86-1.19 5.6-2.74 7.625-4.765 2.144-2.024 3.93-4.526 5.242-7.266 1.43-2.86 2.5-5.956 3.097-9.054h-14.535zM616.14 34.548c0-2.74.237-5.242.952-7.624.715-2.383 1.668-4.527 2.86-6.195 1.19-1.788 2.858-3.218 4.645-4.17 1.906-1.073 3.812-1.55 5.957-1.55 2.144 0 4.17.477 5.956 1.55 1.906 1.19 3.217 2.382 4.646 4.17 1.192 1.786 2.145 3.81 2.86 6.194.714 2.263 1.072 4.884 1.072 7.624 0 2.74-.358 5.242-1.073 7.624-.714 2.264-1.667 4.527-2.86 6.195-1.19 1.906-2.858 3.217-4.645 4.17-1.906 1.072-3.812 1.548-5.956 1.548-2.145 0-4.17-.476-5.957-1.548-1.906-1.073-3.216-2.383-4.646-4.17-1.19-1.906-2.143-3.93-2.858-6.195-.715-2.382-.953-4.884-.953-7.624m-13.82 0c0 4.29.596 8.458 1.906 12.27 1.31 3.813 2.978 7.148 5.48 10.007 2.383 2.86 5.48 5.123 8.935 6.79 3.455 1.668 7.625 2.502 12.033 2.502 4.527 0 8.577-.834 12.15-2.5 3.575-1.67 6.553-3.933 8.936-6.792 2.38-2.86 4.168-6.194 5.598-10.007 1.19-3.93 1.906-7.98 1.906-12.27 0-4.408-.715-8.458-1.906-12.27-1.19-3.932-3.097-7.148-5.6-10.007-2.382-2.858-5.48-5.003-8.934-6.67-3.574-1.668-7.624-2.383-12.15-2.383-4.528 0-8.58.834-12.033 2.382-3.573 1.667-6.55 3.93-8.934 6.67-2.383 2.86-4.17 6.195-5.48 10.008-1.43 3.812-1.906 7.98-1.906 12.27M284.84 34.548c0-2.74.237-5.242.952-7.624.715-2.383 1.668-4.527 2.86-6.195 1.19-1.788 2.858-3.218 4.645-4.17 1.906-1.073 3.812-1.55 5.957-1.55 2.144 0 4.17.477 5.956 1.55 1.906 1.072 3.217 2.382 4.646 4.17 1.192 1.786 2.145 3.81 2.86 6.194.714 2.263 1.072 4.884 1.072 7.624 0 2.74-.358 5.242-1.073 7.624-.714 2.264-1.667 4.527-2.86 6.195-1.19 1.906-2.858 3.217-4.645 4.17-1.906 1.072-3.812 1.548-5.956 1.548-2.145 0-4.17-.476-5.957-1.548-1.906-1.073-3.216-2.383-4.646-4.17-1.19-1.906-2.143-3.93-2.858-6.195-.476-2.382-.953-4.884-.953-7.624m-13.82 0c0 4.29.596 8.458 1.906 12.27 1.19 3.932 2.978 7.148 5.48 10.007 2.383 2.86 5.48 5.123 8.935 6.79 3.575 1.668 7.625 2.502 12.033 2.502 4.527 0 8.577-.834 12.15-2.5 3.575-1.67 6.553-3.933 8.936-6.792 2.38-2.86 4.168-6.194 5.598-10.007 1.19-3.93 1.906-7.98 1.906-12.27 0-4.29-.715-8.458-1.906-12.27-1.19-3.813-3.097-7.148-5.6-10.007-2.382-2.858-5.48-5.003-8.934-6.67-3.574-1.668-7.624-2.383-12.15-2.383-4.528 0-8.578.834-12.033 2.382-3.454 1.548-6.55 3.93-8.934 6.67-2.383 2.86-4.17 6.195-5.48 10.008-1.19 3.812-1.906 7.862-1.906 12.27M742.536 41.695c-.477 3.693-1.906 6.67-4.29 8.935-2.38 2.263-5.598 3.574-9.53 3.574-1.786 0-3.216-.24-4.883-.953-1.55-.714-2.86-1.548-3.932-2.74-1.19-1.19-2.143-2.382-2.858-3.93-.834-1.43-1.31-3.098-1.668-4.766h27.162zm-27.4-10.84c.238-2.026.834-4.05 1.787-5.957.834-1.906 1.906-3.693 3.097-5.123 1.192-1.55 2.62-2.74 4.17-3.574 1.55-.833 3.216-1.31 5.123-1.31 6.552 0 11.198 3.813 13.82 11.437h13.103c-.834-3.693-1.906-6.91-3.812-9.768-1.787-2.86-3.932-5.243-6.195-7.268-2.384-2.025-5.005-3.574-7.983-4.527-2.86-1.072-5.956-1.55-8.935-1.55-4.526 0-8.458.835-11.912 2.622-3.574 1.787-6.553 4.05-9.054 7.03-2.502 2.858-4.527 6.432-5.838 10.244-1.31 3.932-2.025 8.102-2.025 12.51 0 4.05.715 7.98 2.025 11.674 1.31 3.693 3.217 6.91 5.838 9.77 2.5 2.858 5.6 5.002 8.934 6.79 3.574 1.667 7.506 2.5 11.913 2.5 4.17 0 8.1-.833 11.556-2.143 3.335-1.43 6.432-3.573 8.815-6.194 2.382-2.62 4.17-5.838 5.6-9.53 1.31-3.694 1.905-7.625 1.905-11.794v-5.6h-42.053v-.238zM774.94 26.447c.118-4.17 1.19-7.148 3.096-8.816 1.906-1.786 4.29-2.62 7.148-2.62 1.19 0 2.502.12 3.812.24 1.31.118 2.502.594 3.574 1.07 1.072.477 2.025 1.192 2.74 2.145.715.834 1.072 1.906 1.072 3.217 0 1.072-.357 2.025-1.072 2.86-.715.833-1.668 1.548-2.86 2.143-1.19.715-2.5 1.192-3.93 1.906-1.55.478-3.098 1.074-4.765 1.67-2.502.833-5.004 1.905-7.625 2.858-2.5.953-4.884 2.145-6.79 3.574-2.025 1.43-3.693 3.217-4.884 5.242-1.192 2.025-1.907 4.527-1.907 7.505 0 2.858.595 5.24 1.906 7.504 1.31 2.264 2.86 3.932 4.884 5.242 2.144 1.31 4.527 2.383 7.148 3.097 2.74.715 5.6 1.072 8.458 1.072 3.216 0 6.195-.357 9.173-1.19 2.858-.835 5.24-1.907 7.504-3.575 2.144-1.668 3.812-3.693 5.003-6.194 1.192-2.62 1.906-5.6 2.145-8.935H807.7c-.477 0-1.073 0-1.668.12-.596 0-1.072.12-1.55.12h-9.65c-.356 3.096-1.547 5.24-3.334 6.194-1.906 1.072-3.93 1.55-6.552 1.55-2.74 0-4.765-.478-6.195-1.312-1.43-.834-2.143-2.144-2.143-3.693 0-1.907 1.19-3.337 3.574-4.647 2.502-1.31 5.242-2.383 8.46-3.574l.594-.24c2.383-.833 4.885-1.905 7.505-2.858 2.5-.953 4.884-2.145 6.79-3.574 2.025-1.31 3.693-2.978 4.884-4.884 1.192-1.907 1.906-4.17 1.906-6.91 0-3.336-.714-6.433-2.025-8.816-1.31-2.382-3.216-4.527-5.6-5.956-2.263-1.55-5.003-2.74-8.1-3.336-3.097-.834-6.195-1.072-9.77-1.072-3.215 0-6.432.477-9.29 1.43-2.86.953-5.6 2.382-7.744 4.17-2.143 1.905-3.93 4.288-5.24 7.266-1.31 2.86-2.026 6.195-2.145 10.245zM437.206 14.89c-6.91 0-12.51 8.936-12.51 19.777 0 10.84 5.6 19.775 12.51 19.775s12.51-8.935 12.51-19.775c0-10.84-5.6-19.776-12.51-19.776m12.51 73.266V61.59c-3.694 2.74-8.58 5.003-13.106 5.003-10.126 0-17.75-5.837-22.158-14.653-2.144-4.527-2.978-9.53-2.978-14.414-.12-7.148.715-13.7 3.693-20.252 2.502-5.48 6.67-10.246 12.39-12.39 2.86-1.072 6.075-1.668 9.292-1.668 4.764.12 9.29 1.55 12.865 4.885V3.217h14.057v84.82zM491.29 32.403c.478-5.48 2.145-9.173 5.243-11.317 2.978-2.145 6.67-3.217 10.96-3.217 1.43 0 3.216.118 5.003.357 1.906.238 3.693.833 5.242 1.548 1.668.834 2.978 1.906 4.05 3.217 1.072 1.43 1.55 3.335 1.43 5.837-.12 2.382-.834 4.288-2.145 5.956-1.31 1.548-3.216 2.74-5.24 3.693-2.146.952-4.647 1.786-7.387 2.262-2.86.715-5.6 1.31-8.458 2.144-2.86.834-5.838 1.668-8.578 2.86-2.74 1.072-5.122 2.5-7.386 4.288-2.144 1.906-3.93 4.17-5.122 7.03-1.192 2.858-1.907 6.432-1.907 10.6 0 4.528.953 8.34 2.86 11.438 1.906 3.097 4.17 5.6 7.147 7.505 2.86 1.906 6.076 3.217 9.65 3.93 3.574.716 6.91 1.193 10.126 1.193 3.693 0 7.148-.477 10.602-1.31 3.336-.835 6.433-2.383 9.054-4.528 2.74-2.025 4.885-4.765 6.79-7.98 1.907-3.218 2.86-7.268 3.336-11.914h-16.44c-.834 4.527-2.382 7.505-5.122 8.934-2.74 1.55-5.837 2.145-9.292 2.145-1.072 0-2.383-.12-3.932-.24-1.548-.118-2.86-.594-4.17-1.19s-2.382-1.43-3.335-2.62c-.954-1.192-1.31-2.622-1.31-4.528 0-2.145.714-4.17 2.024-5.6 1.31-1.43 3.097-2.62 5.242-3.574 2.144-.953 4.646-1.787 7.386-2.263 2.86-.715 5.6-1.31 8.577-2.144 2.858-.835 5.598-1.67 8.457-2.86 2.86-1.073 5.242-2.502 7.386-4.29 2.145-1.905 3.932-4.17 5.242-6.91 1.31-2.858 2.025-6.194 2.025-10.363 0-4.884-.953-9.173-2.86-12.628-1.905-3.575-4.526-6.196-7.623-8.46-3.097-2.143-6.552-3.81-10.245-4.764-3.693-.953-7.505-1.43-11.08-1.43-4.526 0-8.696.596-12.508 1.787-3.812 1.19-7.148 2.978-10.007 5.48-2.86 2.383-5.003 5.48-6.552 9.054-1.668 3.574-2.382 7.982-2.502 12.866zM411.474 65.52L394.438 3.098h-13.7l-10.96 39.67-10.96-39.67h-13.58l-17.87 62.305h14.653l10.127-38.24L362.75 65.4h14.296L387.29 27.28c1.668 6.195 3.336 12.628 5.242 19.42 1.906 6.55 3.574 12.984 5.123 18.94M124.49 64.45h-4.526c0-11.318-3.336-21.683-9.054-30.38l3.812-2.5-3.812 2.62c-.476-.596-.595-1.19-.715-1.668-.12-.476-.12-.834-.12-1.072 0-.476 0-.715.12-1.072.12-.477.24-.953.358-1.31.238-.715.595-1.43.953-2.264.596-1.43 1.43-2.978 2.263-4.765 2.5-5.005 5.598-10.604 5.598-10.604L123.3 13.7l1.43 4.288s-3.932 1.192-8.34 2.502c-2.263.596-4.646 1.19-6.79 1.668-1.072.238-2.145.476-3.098.596-.953.12-1.787.238-2.74.238-.476 0-.833 0-1.43-.12-.237 0-.595-.118-.952-.238-.358-.12-.834-.357-1.31-.714l2.86-3.574-2.74 3.693c-5.124-3.813-10.604-7.03-16.56-9.293-5.957-2.264-12.27-3.574-18.942-3.574-15.25 0-29.068 6.195-39.194 16.2C15.487 35.382 9.294 49.2 9.294 64.57c0 15.25 6.193 29.068 16.2 39.194 10.007 10.007 23.826 16.2 39.194 16.2 15.248 0 29.068-6.193 39.194-16.2 10.006-10.007 16.2-23.826 16.2-39.194h8.936c0 17.75-7.267 33.952-18.942 45.627-11.674 11.555-27.757 18.822-45.626 18.822-17.75 0-33.952-7.267-45.627-18.822C7.267 98.52 0 82.318 0 64.568c0-17.75 7.267-33.952 18.942-45.627C30.617 7.268 46.818 0 64.57 0c7.86 0 15.247 1.548 22.157 4.17 6.91 2.62 13.104 6.194 18.822 10.483l-2.502 3.097 1.43-3.693c.237.12.595.238 1.07.596l-2.5 3.097 1.43-3.693-1.073 2.86.357-3.098c.12 0 .358 0 .715.237l-1.072 2.86.357-3.098-.238 1.428.12-1.43h.118l-.238 1.43.12-1.43v.358-.357.356-.357c.118 0 .595 0 1.31-.12 1.19-.24 2.978-.596 4.765-1.072 2.74-.715 5.836-1.55 8.1-2.264 1.19-.357 2.144-.596 2.86-.834.356-.12.594-.238.833-.238.238 0 .238-.12.238-.12l10.96-3.454-5.598 10.007-.12.12c-.476.833-2.62 4.645-4.526 8.576-.953 1.907-1.906 3.814-2.62 5.362-.358.715-.597 1.43-.716 1.787-.12.237-.12.357-.12.357l-1.19-.358 1.19.237v.12l-1.19-.358 1.19.237-3.096-.476h3.216v.477l-3.097-.476h3.216-4.05l3.93-.833c.12.357.12.596.12.834h-4.05l3.93-.833-4.17.953 3.575-2.383c.357.596.595 1.192.595 1.55l-4.17.952 3.575-2.383c6.79 10.126 10.602 22.396 10.602 35.5h-4.646z" fill="#fff"/>
    <path d="M98.044 82.557l-1.55-.834c3.218-5.718 4.647-11.794 4.647-17.87 0-12.865-6.79-25.255-18.702-32.045-5.718-3.217-11.794-4.646-17.87-4.646-12.865 0-25.255 6.79-32.045 18.703-3.217 5.718-4.646 11.794-4.646 17.87 0 12.865 6.79 25.255 18.703 32.045 5.718 3.217 11.794 4.646 17.87 4.646 12.865 0 25.255-6.67 32.045-18.703l1.55.834 1.548.834c-7.386 13.105-21.086 20.49-35.144 20.49-6.672 0-13.462-1.667-19.657-5.12-13.104-7.387-20.49-21.087-20.49-35.145 0-6.67 1.667-13.46 5.122-19.656C36.81 30.854 50.51 23.47 64.57 23.47c6.67 0 13.46 1.666 19.655 5.12 13.104 7.387 20.49 20.968 20.49 35.145 0 6.67-1.668 13.46-5.122 19.656z" fill="#fff"/>
    <path d="M45.984 60.994c.596.12.238 5.837 0 6.433-.357.715-8.577.12-10.126 9.65-.12.476-3.336-2.86-3.693-3.813-.357-1.19-.953-16.44 0-18.465.476-1.192 2.62-2.74 2.978-2.502.596 0-.476 5.48 10.84 8.696" fill="#fff"/>
    <path d="M45.984 60.994l.12-.238c.237.12.237.238.357.357.12.358.12 1.072.12 1.906 0 .833 0 1.905-.12 2.74 0 .476-.12.833-.12 1.07 0 .36-.118.478-.118.597-.12.12-.238.12-.238.238-.357.12-1.072.24-1.906.477-1.31.357-2.978.953-4.527 2.263-1.548 1.31-2.858 3.336-3.335 6.672l-.12.238-.237-.12c-.238 0-.238-.118-.477-.118-.475-.358-1.19-1.073-1.905-1.787-.357-.358-.714-.834-.953-1.073-.238-.357-.476-.595-.595-.953-.12-.238-.12-.714-.24-1.548-.237-2.264-.356-6.552-.356-10.365 0-1.547 0-3.096.12-4.287.12-1.192.238-2.145.358-2.62.238-.597.833-1.312 1.43-1.788.357-.238.595-.477.833-.596.24-.12.478-.24.716-.24h.238l-.12.24.12-.24c.12 0 .12.12.238.24.12.118.12.357.12.595.12.715.476 2.144 1.906 3.574 1.43 1.548 3.93 3.215 8.577 4.407l.12.357.118-.238-.12.238-.118.238c-5.718-1.548-8.34-3.812-9.65-5.6-.595-.952-.953-1.786-1.072-2.38-.12-.36-.12-.597-.12-.716v-.12l.12-.118v.12l.12-.12v.12-.12.12-.12.12l-.477.237c-.715.476-1.906 1.43-2.145 2.144-.118.357-.237 1.19-.356 2.382-.12 1.19-.12 2.62-.12 4.29 0 2.5.12 5.24.24 7.504 0 1.072.118 2.025.118 2.86 0 .714.12 1.31.12 1.428l-.358-.12.238-.118c0 .12.24.477.596.953.477.595 1.072 1.31 1.668 1.905.238.238.595.477.715.715l.24.238h.118v.12-.12.12-.12.24l-.12-.12h.12v.238l-.12-.12.12.12h-.238l.12-.12.118.12h-.238.238-.238c.714-4.766 3.216-7.148 5.6-8.34 1.19-.595 2.262-.833 3.096-1.072.477-.12.834-.12 1.072-.238.12 0 .24-.12.24-.12l.118.12h-.12l.12.12h-.12l.24.118-.24-.12s.12-.237.12-.475c.12-.835.238-2.503.238-3.694 0-.596 0-1.072-.12-1.43 0-.12 0-.357-.118-.357v-.12l.238-.596-.12.238.12-.238-.12.238zM49.081 67.427c-.475-.477-.713-5.6.002-6.314.714-.715 8.576-.476 16.558-10.483.358-.477 5.6 2.86 5.958 3.335.713.953-4.886 6.552.356 20.014.358.952-4.764 4.883-5.717 4.288-.954-.477-2.622-2.978-7.864-6.195-5.36-3.336-8.696-4.05-9.292-4.646" fill="#fff"/>
    <path d="M49.081 67.427l-.236.12c-.12-.12-.12-.358-.24-.477-.118-.715-.237-1.787-.237-2.98 0-.713 0-1.31.12-1.905.117-.595.117-.953.475-1.19.12-.12.357-.24.715-.358 2.145-.596 8.816-1.43 15.845-10.126l.237.12-.24-.12c.12-.12.24-.12.36-.12.118 0 .357 0 .595.12.834.24 2.025.954 3.216 1.668.597.358 1.074.715 1.55.953.238.12.358.24.477.36.12.118.238.118.238.237.12.12.12.238.12.357 0 .358-.12.715-.358 1.192-.596 1.43-1.668 3.93-1.668 7.98 0 2.74.594 6.315 2.143 10.604v.238c0 .24-.12.358-.238.596-.477.715-1.55 1.668-2.62 2.502-.597.357-1.073.714-1.67 1.072-.475.12-.833.238-1.31.238-.118 0-.237 0-.357-.12l.12-.237-.12.237c-.477-.357-1.192-1.072-2.383-2.144-1.19-1.073-2.86-2.502-5.48-4.17-2.62-1.668-4.765-2.62-6.314-3.216-.833-.358-1.43-.596-1.905-.834-.477-.24-.834-.358-1.072-.596h.238l.24-.12c.118.12.357.24.833.477 1.43.596 4.408 1.668 8.34 4.05 2.62 1.67 4.407 3.098 5.598 4.17 1.193 1.073 1.907 1.787 2.265 2.026h.12c.237 0 .714-.12 1.31-.477.833-.476 1.905-1.19 2.62-1.906l.953-.953c.24-.238.358-.596.358-.596-1.668-4.408-2.264-7.98-2.264-10.84 0-2.74.477-4.766.953-6.314.238-.715.477-1.31.715-1.787.238-.477.238-.834.238-.953v-.12l-.238-.238c-.596-.357-1.787-1.19-2.86-1.787-.595-.358-1.07-.596-1.548-.835-.476-.238-.834-.357-.953-.357v-.12l.118.12h-.12v-.12l.12.12c-4.05 5.003-7.98 7.505-11.08 8.816-1.547.595-2.858.953-3.81 1.19-.477.12-.835.24-1.192.24-.238.118-.477.118-.477.237l-.12-.237.238.238c-.12.12-.238.478-.238.954-.12.477-.12 1.192-.12 1.787 0 .716 0 1.55.12 2.146 0 .357.12.595.12.714l.118.24v.118l-.357.12.24-.12zM68.38 80.89c-.356-.716 5.004-4.05 5.6-3.813.833.238 6.67 7.862 14.652 5.122.477-.12.477 3.097.12 3.692-.477.953-15.607 10.126-16.797 10.365-1.192.238-4.885-.953-5.005-1.43-.238-.476 5.48-5.48 1.43-13.938" fill="#fff"/>
    <path d="M68.38 80.89h-.237v-.24c0-.238.118-.357.237-.595.478-.596 1.67-1.43 2.74-2.144.596-.357 1.072-.714 1.55-.952.475-.24.833-.358 1.19-.358h.24l-.12.477.118-.238c.24.118.36.237.478.356 1.43 1.19 5.36 5.36 10.602 5.36 1.072 0 2.264-.118 3.336-.595h.12c.118 0 .237.12.237.12.12.12.12.24.12.358.12.357.12 1.072.12 1.667 0 .358 0 .834-.12 1.192 0 .357-.12.595-.238.834-.12.12-.12.24-.357.358-1.072.953-5.004 3.336-8.697 5.6-1.906 1.19-3.693 2.263-5.122 2.977-.715.358-1.31.715-1.787.953-.48.24-.836.358-.955.477h-.357c-.715 0-1.907-.238-2.98-.596-.475-.12-.952-.358-1.31-.477-.238-.12-.357-.12-.476-.238-.12-.12-.238-.12-.238-.358v-.12l.12-.237c.118-.238.356-.477.595-.953.833-1.192 2.262-3.574 2.262-6.79 0-1.668-.356-3.694-1.428-5.838h.356-.237.237l.24-.12c1.07 2.263 1.428 4.29 1.428 6.075 0 2.383-.714 4.408-1.548 5.72-.358.713-.716 1.19-1.073 1.667-.12.238-.238.357-.357.476l-.12.12h-.12.12-.12.12-.238l.238-.12v.12h-.238l.238-.12h-.12.12-.12.12l.12.12c.715.476 3.217 1.19 4.408 1.19h.238c.12 0 .477-.12.954-.476 1.786-.953 5.717-3.217 9.052-5.36 1.67-1.073 3.337-2.145 4.528-2.86.595-.357 1.072-.715 1.43-1.072.237-.12.356-.238.476-.358l.12-.12.238.12-.238-.12c0-.118.12-.356.12-.594v-1.073c0-.476 0-.953-.12-1.31 0-.12-.12-.357-.12-.357h.12v.12h.12v.118l.118-.12v.12h-.12l.12-.12v.12-.12.12-.12.12c-1.19.476-2.383.596-3.574.596-3.097 0-5.837-1.43-7.743-2.86-.953-.714-1.787-1.43-2.383-2.025-.357-.238-.596-.476-.715-.715l-.12-.357h-.12v-.12.12-.12.12s-.237 0-.356.12c-.715.237-1.907.952-2.98 1.667-.475.357-.952.715-1.31 1.072l-.356.358-.12.12h-.12.12-.12.12zM67.547 47.77c-.357.597 5.36 3.694 5.718 3.337.477-.358 5.957-7.625 15.487-5.48.715.12 0-4.408-.834-5.004-.953-.834-12.508-7.862-16.678-8.577-1.19-.238-5.123 1.19-4.765 1.787.476.715 5.956 4.765 1.072 13.938" fill="#fff"/>
    <path d="M67.547 47.77l.238.12-.238-.12h.238v.12l-.238-.12h.238-.12.12-.12.12l.24.24c.475.476 1.666 1.19 2.74 1.786.594.358 1.07.596 1.547.715.477.24.834.358.834.24v.118l-.12-.12v.12l-.118-.12s.12-.118.357-.356c1.31-1.31 5.36-5.6 11.794-5.6 1.07 0 2.263.12 3.454.358v.12-.12.12-.12.12l-.12-.12h.12v.12l-.12-.12c0-.12.12-.238 0-.476 0-.596-.118-1.55-.357-2.383-.12-.356-.238-.833-.357-1.07-.12-.36-.238-.597-.357-.597-.12-.12-.358-.238-.834-.595-1.43-.953-4.528-2.74-7.626-4.408-3.097-1.668-6.433-3.217-8.1-3.455h-.24c-.594 0-1.786.238-2.62.596-.476.12-.834.358-1.19.477-.12.12-.24.12-.358.238v.12h-.12.12-.12.12c0 .12.238.357.595.714.954 1.072 2.503 3.097 2.503 6.432 0 1.906-.596 4.29-2.025 7.03h.12l-.24-.12c1.43-2.74 2.026-5.004 2.026-6.79 0-2.145-.715-3.694-1.43-4.766-.357-.595-.714-.953-1.072-1.31-.357-.358-.476-.596-.595-.715l.238-.118-.238.12-.12-.24c0-.237.12-.357.24-.476.356-.357 1.19-.714 2.024-1.072.835-.238 1.788-.476 2.503-.476h.357c2.144.357 6.076 2.263 9.65 4.288 1.786.953 3.454 1.906 4.765 2.74.595.358 1.19.715 1.668 1.072.476.24.714.477.833.596l-.12.238.12-.238c.24.238.358.477.477.834.476 1.072.715 2.62.715 3.693 0 .24 0 .478-.12.597l-.12.238c-.118.12-.237.12-.356.12h-.12c-1.19-.24-2.263-.358-3.335-.358-3.574 0-6.433 1.43-8.458 2.74-.954.714-1.788 1.43-2.383 2.025-.24.238-.477.476-.715.715h-.12l-.12.12-.237.118c-.12 0-.357 0-.595-.12-.834-.237-2.026-.952-3.217-1.548-.596-.357-1.072-.715-1.43-.953-.238-.12-.357-.238-.476-.357-.12-.12-.238-.24-.238-.477v-.12zM95.542 44.316c1.072 1.31 5.003 5.837 5.956 17.63 0 .36-1.43.36-1.43-.118-2.143-12.628-8.576-14.653-8.696-15.606-.12-.715-.833-3.812-.714-4.29.357-.713 4.288 1.67 4.884 2.384" fill="#fff"/>
    <path d="M95.542 44.316l.238-.12c1.192 1.31 5.123 5.957 5.957 17.75h-.24.24c0 .12-.12.24-.12.24-.238.12-.476.12-.714.238-.238 0-.477 0-.715-.12l-.238-.12c-.12-.118-.12-.118-.238-.356h.238-.238c-1.073-6.314-3.217-9.888-5.004-12.032-.953-1.072-1.787-1.787-2.382-2.383-.358-.238-.596-.476-.834-.714-.24-.24-.358-.36-.358-.597 0-.238-.238-1.072-.357-1.906-.12-.834-.358-1.668-.358-2.144 0-.12 0-.24.12-.358l.118-.12h.238c.357 0 .715.12 1.19.358.716.24 1.43.715 2.146 1.192.714.476 1.19.834 1.548 1.072l-.238.12.238-.12-.238.12-.238.118c-.12-.12-.358-.357-.715-.596-.597-.358-1.31-.834-2.026-1.192-.715-.357-1.43-.595-1.668-.595h-.12.24l-.358-.12.238.12v.12c0 .356.12 1.19.357 2.024.12.834.358 1.55.358 1.906v.12c.12.237.715.595 1.43 1.19 2.145 1.787 5.72 5.48 7.267 14.415h-.12s.358.12.597.12h.357l.12.118h-.12v-.12l.12.12h-.12.12-.12.12-.12c-.952-11.794-4.764-16.2-5.836-17.512zM91.253 85.297c.357.477 3.812-1.31 4.29-1.906 3.215-4.407 6.432-13.222 5.955-18.583 0-.477-1.906-.24-1.906-.12s-.596 10.84-8.577 16.44c.12.12-.12 3.693.238 4.17" fill="#fff"/>
    <path d="M91.253 85.297l.238-.12-.237.12.12-.238-.12.237.12-.238h.118c.12 0 .478-.12.835-.24.596-.238 1.31-.476 1.906-.833.24-.12.597-.358.716-.477.238-.12.357-.238.357-.357 2.98-4.05 5.957-12.152 5.957-17.393v-.953h.238-.238.12-.12.12-.12s-.358-.12-.596-.12h-.955v-.12l.12.12v-.12l.12.12-.12-.12h.24l-.12.12-.12-.12h.24v.12l-.24-.12h.24v.12l-.24-.12h.24s0 .24-.12.597c-.24 2.383-1.55 11.08-8.578 16.083l-.12-.24h.24v3.217c0 .12 0 .358.118.477v.12l-.357.477-.238.12c-.12-.12-.12-.24-.12-.358-.12-.478-.12-1.073-.12-1.788v-2.145l.12-.12c3.932-2.74 6.076-6.79 7.148-10.244.596-1.668.834-3.216 1.073-4.288.12-.596.12-.954.12-1.31v-.598l.237.12h-.238c0-.12.12-.238.12-.238l.237-.12c.238-.12.596-.12.953-.12.238 0 .477 0 .596.12l.24.12c.118.118.118.118.237.357v.953c0 5.48-2.978 13.58-6.075 17.75-.12.238-.358.357-.715.596-.477.357-1.19.714-1.906.953-.714.237-1.19.475-1.667.475-.12 0-.357 0-.477-.12zM65.283 96.257c.477-.238 4.408.953 4.765 1.19.358.24-2.62 2.265-3.335 2.384-.715.12-8.816 2.026-18.466-3.81-.357-.12 0-.716.358-.597.12.238 8.34 4.884 16.678.834" fill="#fff"/>
    <path d="M65.283 96.257l-.12-.238c.12 0 .24-.12.358-.12.597 0 1.55.238 2.622.476.477.12.953.238 1.31.477.24.12.358.12.477.238.118 0 .237.12.356.12l-.12.238.12-.238.12.238c0 .24-.12.24-.12.358-.357.357-.953.834-1.667 1.31-.716.477-1.43.834-1.788.953v-.24.24c-.24.118-1.787.357-4.17.357-3.455 0-8.696-.715-14.534-4.17l.12-.238-.24.356c-.237-.12-.237-.357-.237-.476 0-.12.12-.358.12-.477.12-.12.238-.238.477-.238h.12l-.12.238.12-.238c.118 0 .118.12.237.12.953.475 4.646 2.262 9.292 2.262 2.264 0 4.646-.476 7.148-1.667l.12.357.118.238c-2.502 1.192-5.003 1.668-7.386 1.668-2.74 0-5.003-.596-6.79-1.19-.834-.36-1.55-.597-2.026-.835-.238-.12-.476-.238-.595-.238l-.12-.12v-.12.12-.12.12-.12.12-.12.12l-.118.12v.12c5.718 3.454 10.96 4.168 14.295 4.168 2.264 0 3.693-.357 4.05-.357.12 0 .477-.118.715-.356.477-.24 1.192-.715 1.668-1.073.238-.237.477-.356.596-.475l.12-.12h.12-.12.12-.12.12l-.12.12v-.358h.12l-.12.12c-.12 0-.357-.12-.715-.24-.595-.237-1.31-.356-2.025-.594-.715-.12-1.31-.358-1.668-.358h-.12zM32.165 80.532c-.357-.715-.715-4.646-.357-4.765.238-.12 3.216 3.335 3.335 3.455.24.476.358 7.386 9.888 14.295l-.356.715c-.24-.238-8.34-3.93-12.51-13.7" fill="#fff"/>
    <path d="M32.165 80.532l-.238.12c-.12-.358-.24-.954-.358-1.67-.12-.713-.12-1.547-.12-2.143v-.716l.12-.238c0-.12.118-.12.238-.238h.12c.118 0 .118 0 .237.12.238.118.477.356.834.714.475.476 1.07 1.19 1.548 1.787.238.237.476.475.595.713l.24.24v.118l.118.24c.12.595.358 2.5 1.668 5.002s3.693 5.72 8.1 8.935l.24.12-.596 1.19-.238-.12c-.12-.118-.715-.356-1.668-.952-2.62-1.667-7.982-5.6-10.96-12.985l.12-.238.237-.12c2.025 4.885 5.123 8.22 7.625 10.365 1.31 1.072 2.5 1.906 3.335 2.383.477.238.834.476 1.072.595.12.12.24.12.358.12l.12.12-.12.237-.24-.12.36-.714.237.12-.12.237c-4.883-3.454-7.266-6.91-8.576-9.65-.596-1.31-.953-2.5-1.192-3.335-.12-.476-.12-.715-.238-.953v-.358l.238-.12-.238.24-.12-.24c-.356-.357-1.07-1.19-1.667-1.905l-.953-.953c-.12-.12-.238-.24-.357-.24l-.12-.118.12-.12v.12h-.12l.12-.12v.12-.238l.12.238h-.12v-.238l.12.238-.12-.238.12.238-.12-.12.12.12h-.12l-.12-.12.12.12v.715c0 .595 0 1.43.12 2.143.118.715.237 1.43.237 1.55h-.12l.24-.12zM31.927 51.94c0 .358 3.097-2.143 3.217-2.62.12-.834 2.263-10.364 9.65-15.13.356-.238-.716-1.43-.954-1.31-.357.24-13.343 9.41-11.913 19.06" fill="#fff"/>
    <path d="M31.927 51.94h.238-.238l.12-.118.118.12h-.238l.12-.12-.12.12v-.24h.12l-.12.24v-.24s.357-.118.596-.357c.476-.357 1.072-.834 1.548-1.19.24-.24.478-.358.597-.597l.12-.238v-.12h-.24.24-.24c.12-.952 2.264-10.363 9.77-15.248l.12.24-.12-.24.12.12h-.12l.12.12h-.12.12-.12.12-.12l-.12-.24c-.12-.12-.238-.357-.357-.476l.12-.238h-.12v-.12.12-.12.12-.12l.12.12h-.12v-.12l.12.12v-.12.12-.12.12s-.24.12-.597.476c-1.31.953-4.05 3.217-6.552 6.195-2.5 2.977-4.645 6.79-4.645 10.6 0 .478 0 .954.12 1.43h-.596c-.12-.476-.12-.952-.12-1.43 0-4.645 2.978-9.052 5.956-12.27 1.43-1.667 2.978-2.977 4.17-3.93.595-.477 1.072-.834 1.43-1.072.118-.12.357-.24.476-.358.12-.12.12-.12.238-.12l.12.24-.12-.24h.238c.24 0 .358.12.477.24.238.118.357.357.595.595.12.238.24.357.24.715 0 .12 0 .238-.12.357-7.267 4.765-9.412 14.177-9.53 15.01 0 .12-.12.24-.24.358-.356.357-.952.953-1.667 1.55-.357.237-.596.475-.953.713-.12.12-.238.12-.357.24-.12 0-.24.118-.358.118l-.238-.12-.12-.238.12-.357h-.238zM64.092 31.808c.238.12 4.646-1.31 4.408-1.906-.12-.357-4.17-3.336-5.004-3.336-.953 0-8.22 0-17.154 4.765-.358.24.238 1.67.476 1.67.834-.24 7.982-4.885 17.274-1.192" fill="#fff"/>
    <path d="M64.092 31.808l.12-.238-.12.238v-.238.238-.238s.357-.12.834-.24c.596-.237 1.55-.475 2.144-.832.358-.12.596-.358.834-.477l.238-.118h.12-.12.12-.12.12-.12.12-.12l.24-.12-.24.12h.12-.12.12-.12l-.238-.238c-.476-.358-1.43-1.192-2.382-1.787-.477-.358-.953-.596-1.31-.834-.24-.12-.358-.238-.477-.238-.12 0-.24-.12-.24-.12h-.356c-1.788 0-8.578.358-16.56 4.766l-.12-.238.12.24v-.12h.12v-.12h.118v.12c0 .12.12.476.238.714 0 .12.12.24.12.358v.12l-.12.118v-.238h.12l-.12.12v-.24.24-.24s.12 0 .358-.12c1.19-.594 4.765-2.38 9.65-2.38 2.263 0 4.765.356 7.385 1.428l-.358.596-.12.238c-2.62-1.072-5.003-1.43-7.147-1.43-2.74 0-5.003.596-6.79 1.192-.834.357-1.55.596-2.026.834-.24.12-.477.238-.596.357-.12.118-.238.118-.358.118s-.238-.12-.238-.12c-.12-.118-.238-.356-.357-.594-.118-.24-.237-.596-.237-.834 0-.12 0-.358.238-.477 8.102-4.408 14.892-4.765 16.798-4.765h.477v.238-.238c.12 0 .357.12.476.12.716.357 1.788 1.07 2.74 1.667.478.357.954.715 1.312.953.12.12.357.238.476.357.12.12.238.12.238.358v.12c0 .237-.12.356-.238.475-.476.358-1.43.715-2.263 1.073-.477.12-.953.358-1.31.477-.358.12-.596.12-.835.238h-.12z" fill="#fff"/>
  </g>
</svg>
