<?xml version="1.0" encoding="utf-8"?>
<!-- Generator: Adobe Illustrator 18.0.0, SVG Export Plug-In . SVG Version: 6.00 Build 0)  -->
<!DOCTYPE svg PUBLIC "-//W3C//DTD SVG 1.1//EN" "http://www.w3.org/Graphics/SVG/1.1/DTD/svg11.dtd">
<svg version="1.1" id="Layer_1" xmlns="http://www.w3.org/2000/svg" xmlns:xlink="http://www.w3.org/1999/xlink" x="0px" y="0px"
	 viewBox="0 0 232.2 149.5" enable-background="new 0 0 232.2 149.5" xml:space="preserve">
<g>
	<path fill="none" stroke="#000000" stroke-width="4" stroke-miterlimit="10" d="M12.1,91.8l-8.7,24.5c0,0-6,36.4,39.6,22.7
		c0,0,12.6-7.2,56.9,2.1s57.5-17.2,51.8-23.5s-19.6-3.8-21.7-3.8c-2.1,0-18.2,1.8-36.4-9.6S71.2,90.7,71.2,90.7s-11.1-8.1-16.4-0.9
		S48,98.7,48,98.7S34.3,112,17.2,90.9C17.2,90.9,14.2,88.6,12.1,91.8z"/>
	<polyline fill="none" stroke="#000000" stroke-width="3" stroke-linejoin="round" stroke-miterlimit="10" points="18,141.9 
		18,147.3 12,147.3 12,138.3 	"/>
	<polyline fill="none" stroke="#000000" stroke-width="3" stroke-linejoin="round" stroke-miterlimit="10" points="30.7,141.9 
		30.7,147.3 24.7,147.3 24.7,141.9 	"/>
	<polyline fill="none" stroke="#000000" stroke-width="3" stroke-linejoin="round" stroke-miterlimit="10" points="110.5,143.1 
		110.5,147.3 104.5,147.3 104.5,141.9 	"/>
	<polyline fill="none" stroke="#000000" stroke-width="3" stroke-linejoin="round" stroke-miterlimit="10" points="122.2,143.7 
		122.2,147.3 116.2,147.3 116.2,143.7 	"/>
	<polyline fill="none" stroke="#000000" stroke-width="3" stroke-linejoin="round" stroke-miterlimit="10" points="134.2,140.7 
		134.2,147.3 128.2,147.3 128.2,141.9 	"/>
	<path fill="none" stroke="#000000" stroke-width="4" stroke-linejoin="round" stroke-miterlimit="10" d="M68.1,88.9
		c0,0-11.3,5.6-8.7,12.5C62,108.4,88.2,115,88.2,115s19.9,6.7,28,2.4c3.7-2,3-3.8,3-3.8"/>
	<path fill="none" stroke="#000000" stroke-width="4" stroke-linejoin="round" stroke-miterlimit="10" d="M3.3,116.3
		c0,0,0.2,17.6,63,20.2"/>
</g>
<path fill="none" stroke="#000000" stroke-width="4" stroke-miterlimit="10" d="M110.5,111.2C101.4,99.8,96,85.4,96,69.8
	C96,32.9,125.9,3,162.8,3s66.7,29.9,66.7,66.7s-29.9,66.7-66.7,66.7c-6.3,0-12.4-0.9-18.1-2.5"/>
</svg>
