<?xml version="1.0" encoding="utf-8"?>
<!-- Generator: Adobe Illustrator 18.0.0, SVG Export Plug-In . SVG Version: 6.00 Build 0)  -->
<!DOCTYPE svg PUBLIC "-//W3C//DTD SVG 1.1//EN" "http://www.w3.org/Graphics/SVG/1.1/DTD/svg11.dtd">
<svg version="1.1" id="Layer_1" xmlns="http://www.w3.org/2000/svg" xmlns:xlink="http://www.w3.org/1999/xlink" x="0px" y="0px"
	 viewBox="0 0 224.8 167.4" enable-background="new 0 0 224.8 167.4" xml:space="preserve">
<polyline fill="none" stroke="#010202" stroke-width="4" stroke-linecap="round" stroke-linejoin="round" stroke-miterlimit="10" points="
	211.5,133.9 222.6,133.9 222.6,2.3 2.1,2.3 2.1,133.9 12.5,133.9 "/>
<polyline fill="none" stroke="#010202" stroke-width="4" stroke-linecap="round" stroke-linejoin="round" stroke-miterlimit="10" points="
	211.3,133.9 211.3,13 12.6,13 12.6,133.9 "/>
<polyline fill="none" stroke="#010202" stroke-width="4" stroke-linecap="round" stroke-linejoin="round" stroke-miterlimit="10" points="
	12.6,13 39.5,45.3 39.5,107.9 "/>
<polyline fill="none" stroke="#010202" stroke-width="4" stroke-linecap="round" stroke-linejoin="round" stroke-miterlimit="10" points="
	211.3,13 184.4,45.3 184.4,88.9 "/>
<g>
	<g>
		
			<line fill="none" stroke="#010202" stroke-linecap="round" stroke-linejoin="round" stroke-miterlimit="10" x1="142.3" y1="45.3" x2="142.3" y2="108.9"/>
	</g>
	<g>
		
			<line fill="none" stroke="#010202" stroke-linecap="round" stroke-linejoin="round" stroke-miterlimit="10" x1="121.6" y1="45.3" x2="121.6" y2="108.9"/>
	</g>
	<g>
		
			<line fill="none" stroke="#010202" stroke-linecap="round" stroke-linejoin="round" stroke-miterlimit="10" x1="100.9" y1="45.3" x2="100.9" y2="108.9"/>
	</g>
	<g>
		
			<line fill="none" stroke="#010202" stroke-linecap="round" stroke-linejoin="round" stroke-miterlimit="10" x1="80.2" y1="45.3" x2="80.2" y2="108.9"/>
	</g>
	<g>
		
			<line fill="none" stroke="#010202" stroke-linecap="round" stroke-linejoin="round" stroke-miterlimit="10" x1="59.5" y1="45.3" x2="59.5" y2="108.9"/>
	</g>
</g>
<g>
	
		<line fill="none" stroke="#010202" stroke-linecap="round" stroke-linejoin="round" stroke-miterlimit="10" x1="163.1" y1="45.3" x2="163.1" y2="87.7"/>
</g>
<g>
	<g>
		
			<line fill="none" stroke="#010202" stroke-linecap="round" stroke-linejoin="round" stroke-miterlimit="10" x1="39.5" y1="45.4" x2="184.4" y2="45.4"/>
	</g>
	<g>
		
			<line fill="none" stroke="#010202" stroke-linecap="round" stroke-linejoin="round" stroke-miterlimit="10" x1="39.5" y1="66.7" x2="184.4" y2="66.7"/>
	</g>
	<g>
		
			<line fill="none" stroke="#010202" stroke-linecap="round" stroke-linejoin="round" stroke-miterlimit="10" x1="39.5" y1="87.9" x2="184.4" y2="87.9"/>
	</g>
</g>
<g>
	
		<line fill="none" stroke="#010202" stroke-linecap="round" stroke-linejoin="round" stroke-miterlimit="10" x1="39.5" y1="108.9" x2="144.5" y2="108.9"/>
</g>
<line fill="none" stroke="#010202" stroke-linecap="round" stroke-linejoin="round" stroke-miterlimit="10" x1="39.5" y1="87.7" x2="12.6" y2="90.8"/>
<line fill="none" stroke="#010202" stroke-width="4" stroke-linecap="round" stroke-linejoin="round" stroke-miterlimit="10" x1="39.5" y1="108.9" x2="13.1" y2="134.4"/>
<line fill="none" stroke="#010202" stroke-linecap="round" stroke-linejoin="round" stroke-miterlimit="10" x1="39.5" y1="67.1" x2="12.6" y2="56.3"/>
<line fill="none" stroke="#010202" stroke-linecap="round" stroke-linejoin="round" stroke-miterlimit="10" x1="28.6" y1="32.2" x2="28.6" y2="118.9"/>
<line fill="none" stroke="#010202" stroke-linecap="round" stroke-linejoin="round" stroke-miterlimit="10" x1="184.4" y1="87.7" x2="211.3" y2="90.8"/>
<line fill="none" stroke="#010202" stroke-linecap="round" stroke-linejoin="round" stroke-miterlimit="10" x1="184.4" y1="67.1" x2="211.3" y2="56.3"/>
<line fill="none" stroke="#010202" stroke-linecap="round" stroke-linejoin="round" stroke-miterlimit="10" x1="195.3" y1="32.2" x2="195.3" y2="98.9"/>
<line fill="none" stroke="#010202" stroke-width="4" stroke-linecap="round" stroke-linejoin="round" stroke-miterlimit="10" x1="198.6" y1="121.9" x2="211.1" y2="133.6"/>
<line fill="none" stroke="#010202" stroke-linecap="round" stroke-linejoin="round" stroke-miterlimit="10" x1="121.5" y1="45.3" x2="128" y2="13"/>
<line fill="none" stroke="#010202" stroke-linecap="round" stroke-linejoin="round" stroke-miterlimit="10" x1="142" y1="45.3" x2="155.2" y2="13"/>
<line fill="none" stroke="#010202" stroke-linecap="round" stroke-linejoin="round" stroke-miterlimit="10" x1="163.1" y1="45.3" x2="181.1" y2="13"/>
<line fill="none" stroke="#010202" stroke-linecap="round" stroke-linejoin="round" stroke-miterlimit="10" x1="100.6" y1="45.3" x2="94.1" y2="13"/>
<line fill="none" stroke="#010202" stroke-linecap="round" stroke-linejoin="round" stroke-miterlimit="10" x1="80.1" y1="45.3" x2="66.9" y2="13"/>
<line fill="none" stroke="#010202" stroke-linecap="round" stroke-linejoin="round" stroke-miterlimit="10" x1="59" y1="45.3" x2="41" y2="13"/>
<line fill="none" stroke="#010202" stroke-linecap="round" stroke-linejoin="round" stroke-miterlimit="10" x1="28.6" y1="32.2" x2="195.3" y2="32.2"/>
<circle fill="none" stroke="#000000" stroke-width="4" stroke-miterlimit="10" cx="172.1" cy="113.7" r="27.2"/>
<line fill="none" stroke="#000000" stroke-width="4" stroke-linecap="round" stroke-linejoin="round" stroke-miterlimit="10" x1="146.5" y1="164.7" x2="170.5" y2="146.9"/>
<line fill="none" stroke="#000000" stroke-width="4" stroke-linecap="round" stroke-linejoin="round" stroke-miterlimit="10" x1="100.2" y1="159.4" x2="136.8" y2="131.7"/>
<line fill="none" stroke="#000000" stroke-width="4" stroke-linecap="round" stroke-linejoin="round" stroke-miterlimit="10" x1="123" y1="162.4" x2="150.5" y2="140.9"/>
</svg>
