<?xml version="1.0" encoding="utf-8"?>
<!-- Generator: Adobe Illustrator 18.0.0, SVG Export Plug-In . SVG Version: 6.00 Build 0)  -->
<!DOCTYPE svg PUBLIC "-//W3C//DTD SVG 1.1//EN" "http://www.w3.org/Graphics/SVG/1.1/DTD/svg11.dtd">
<svg version="1.1" id="Layer_1" xmlns="http://www.w3.org/2000/svg" xmlns:xlink="http://www.w3.org/1999/xlink" x="0px" y="0px"
	 viewBox="0 0 333 200" enable-background="new 0 0 333 200" xml:space="preserve">
<g>
	
		<rect x="41.7" y="57.9" fill="none" stroke="#000000" stroke-width="4" stroke-linecap="round" stroke-linejoin="round" stroke-miterlimit="10" width="250.5" height="99.7"/>
	
		<line fill="none" stroke="#000000" stroke-width="4" stroke-linecap="round" stroke-linejoin="round" stroke-miterlimit="10" x1="2.1" y1="57.9" x2="330.9" y2="57.9"/>
	
		<rect x="96.5" y="57.9" fill="none" stroke="#000000" stroke-width="4" stroke-linecap="round" stroke-linejoin="round" stroke-miterlimit="10" width="140.7" height="48.6"/>
	
		<rect x="124" y="22.4" fill="none" stroke="#000000" stroke-width="4" stroke-linecap="round" stroke-linejoin="round" stroke-miterlimit="10" width="85.9" height="35.4"/>
	<g>
		<g>
			
				<line fill="none" stroke="#000000" stroke-width="2" stroke-linecap="round" stroke-linejoin="round" stroke-miterlimit="10" x1="124" y1="31.4" x2="209.8" y2="31.4"/>
		</g>
		<g>
			
				<line fill="none" stroke="#000000" stroke-width="2" stroke-linecap="round" stroke-linejoin="round" stroke-miterlimit="10" x1="124" y1="39.9" x2="209.8" y2="39.9"/>
		</g>
		<g>
			
				<line fill="none" stroke="#000000" stroke-width="2" stroke-linecap="round" stroke-linejoin="round" stroke-miterlimit="10" x1="124" y1="48.4" x2="209.8" y2="48.4"/>
		</g>
	</g>
	<g>
		<g>
			
				<line fill="none" stroke="#000000" stroke-width="2" stroke-linecap="round" stroke-linejoin="round" stroke-miterlimit="10" x1="198.6" y1="22.4" x2="198.6" y2="57.8"/>
		</g>
		<g>
			
				<line fill="none" stroke="#000000" stroke-width="2" stroke-linecap="round" stroke-linejoin="round" stroke-miterlimit="10" x1="188" y1="22.4" x2="188" y2="57.8"/>
		</g>
		<g>
			
				<line fill="none" stroke="#000000" stroke-width="2" stroke-linecap="round" stroke-linejoin="round" stroke-miterlimit="10" x1="177.5" y1="22.4" x2="177.5" y2="57.8"/>
		</g>
		<g>
			
				<line fill="none" stroke="#000000" stroke-width="2" stroke-linecap="round" stroke-linejoin="round" stroke-miterlimit="10" x1="166.9" y1="22.4" x2="166.9" y2="57.8"/>
		</g>
		<g>
			
				<line fill="none" stroke="#000000" stroke-width="2" stroke-linecap="round" stroke-linejoin="round" stroke-miterlimit="10" x1="156.4" y1="22.4" x2="156.4" y2="57.8"/>
		</g>
		<g>
			
				<line fill="none" stroke="#000000" stroke-width="2" stroke-linecap="round" stroke-linejoin="round" stroke-miterlimit="10" x1="145.8" y1="22.4" x2="145.8" y2="57.8"/>
		</g>
		<g>
			
				<line fill="none" stroke="#000000" stroke-width="2" stroke-linecap="round" stroke-linejoin="round" stroke-miterlimit="10" x1="135.3" y1="22.4" x2="135.3" y2="57.8"/>
		</g>
	</g>
	<path fill="none" stroke="#000000" stroke-width="4" stroke-linecap="round" stroke-linejoin="round" stroke-miterlimit="10" d="
		M237.3,158.4c0,21.9-31.5,39.6-70.4,39.6s-70.4-17.7-70.4-39.6"/>
	<circle fill="#1D1D1C" cx="166.9" cy="131.1" r="3.6"/>
</g>
<circle fill="#1D1E1C" cx="101.2" cy="41.5" r="4.6"/>
<circle fill="#1D1E1C" cx="110.4" cy="25.5" r="4.6"/>
<circle fill="#1D1E1C" cx="142.2" cy="4.6" r="4.6"/>
<circle fill="#1D1E1C" cx="224.7" cy="16.2" r="4.6"/>
<circle fill="#1D1E1C" cx="229.3" cy="47.4" r="4.6"/>
<circle fill="#1D1E1C" cx="261.2" cy="42.8" r="4.6"/>
<circle fill="#1D1E1C" cx="172.7" cy="13.9" r="4.6"/>
</svg>
